torrent name

Shallow Hal (2001) 720p BRrip_sujaidr

video details
ID                               : 1
Format                           : AVC
Format/Info                      : Advanced Video Codec
Format profile                   : High@L4.1
Format settings, CABAC           : Yes
Format settings, ReFrames        : 8 frames
Muxing mode                      : Header stripping
Codec ID                         : V_MPEG4/ISO/AVC
Duration                         : 1h 53mn
Bit rate                         : 851 Kbps
Width                            : 1 280 pixels
Height                           : 688 pixels
Display aspect ratio             : 1.860
Frame rate                       : 23.976 fps
Color space                      : YUV
Chroma subsampling               : 4:2:0
Bit depth                        : 8 bits
Scan type                        : Progressive
Bits/(Pixel*Frame)               : 0.040
Stream size                      : 676 MiB (85%)

audio details
ID                               : 2
Format                           : AC-3
Format/Info                      : Audio Coding 3
Mode extension                   : CM (complete main)
Muxing mode                      : Header stripping
Codec ID                         : A_AC3
Duration                         : 1h 53mn
Bit rate mode                    : Constant
Bit rate                         : 128 Kbps
Channel(s)                       : 6 channels
Channel positions                : Front: L C R, Side: L R, LFE
Sampling rate                    : 48.0 KHz
Bit depth                        : 16 bits
Compression mode                 : Lossy
Stream size                      : 104 MiB (13%)

language                           English

subtitle                          English muxed

SAMPLE                  :INCLUDED

[IMG]http://i.imgur.com/UzVN6.png[/IMG]

PLOT:Following the advice of his dying father, Hal dates only women who are physically beautiful. One day, however, he runs into self-help guru Tony Robbins, who hypnotizes him into recognizing only the inner beauty of women. Hal thereafter meets Rosemary, a grossly obese woman whom only he can see as a vision of loveliness. But will their relationship survive when Hal's equally shallow friend undoes the hypnosis? 

Director:Bobby Farrelly, Peter Farrelly
Stars:               Jack Black, Gwyneth Paltrow and Jason Alexander
imdb:  http://www.imdb.com/title/tt0256380/

screenshots

                http://img402.imageshack.us/img402/5246/vlcsnap2012031413h23m32.png

                http://img138.imageshack.us/img138/5531/vlcsnap2012031413h24m22.png

                http://img546.imageshack.us/img546/9981/vlcsnap2012031413h26m57.png

                http://img825.imageshack.us/img825/2392/vlcsnap2012031413h27m10.png

GOOGLE SUJAIDR FOR MY FACBOOK PAGE TO POST REQUESTS

SEED BACK AND DO NOT STOP YOUR TORRENT AS SOON AS YOUR DOWNLOAD IS DONE